<?xml version="1.0" encoding="utf-8"?>
<!-- Generator: Adobe Illustrator 16.0.0, SVG Export Plug-In . SVG Version: 6.00 Build 0)  -->
<!DOCTYPE svg PUBLIC "-//W3C//DTD SVG 1.1//EN" "http://www.w3.org/Graphics/SVG/1.1/DTD/svg11.dtd">
<svg version="1.1" id="Layer_1" xmlns="http://www.w3.org/2000/svg" xmlns:xlink="http://www.w3.org/1999/xlink" x="0px" y="0px"
	 width="30px" height="30px" viewBox="0 0 30 30" enable-background="new 0 0 30 30" xml:space="preserve">
<path fill="#5E5E5B" d="M28.204,4.6c0,0.919-0.745,1.664-1.664,1.664H3.46c-0.919,0-1.664-0.745-1.664-1.664l0,0
	c0-0.919,0.745-1.664,1.664-1.664h23.08C27.459,2.936,28.204,3.681,28.204,4.6L28.204,4.6z"/>
<path fill="#5E5E5B" d="M28.204,15c0,0.919-0.745,1.664-1.664,1.664H3.46c-0.919,0-1.664-0.745-1.664-1.664l0,0
	c0-0.919,0.745-1.664,1.664-1.664h23.08C27.459,13.336,28.204,14.081,28.204,15L28.204,15z"/>
<path fill="#5E5E5B" d="M28.204,25.4c0,0.918-0.745,1.664-1.664,1.664H3.46c-0.919,0-1.664-0.746-1.664-1.664l0,0
	c0-0.92,0.745-1.664,1.664-1.664h23.08C27.459,23.736,28.204,24.48,28.204,25.4L28.204,25.4z"/>
</svg>
